<svg width="925.6px" height="166.4px" xmlns="http://www.w3.org/2000/svg" viewBox="-212.80312499999997 -8.200000000000003 925.6062499999999 166.4" style="background: none" preserveAspectRatio="xMidYMid"><defs><linearGradient id="editing-rainbow-gradient" x1="0" x2="1" y1="0.5" y2="0.5" gradientUnits="objectBoundingBox"><stop offset="0" stop-color="#376888"></stop><stop offset="0.2" stop-color="#826b88"></stop><stop offset="0.3" stop-color="#de786a"></stop><stop offset="0.5" stop-color="#f8b976"></stop><stop offset="0.7" stop-color="#fcddc9"></stop><stop offset="0.8" stop-color="#8cd0e5"></stop><stop offset="1" stop-color="#376888"></stop></linearGradient><filter id="editing-rainbow" x="-100%" y="-100%" width="300%" height="300%"><feMorphology operator="dilate" radius="1,2" in="SourceGraphic" result="dilate"></feMorphology><feColorMatrix in="dilate" result="color" type="matrix" values="0.7 0 0 0 0  0 0.7 0 0 0  0 0 0.7 0 0  0 0 0 1 0"></feColorMatrix><feOffset dy="2" result="offset"></feOffset><feGaussianBlur stdDeviation="3"></feGaussianBlur><feOffset dy="3"></feOffset><feColorMatrix result="blur" type="matrix" values="0.7 0 0 0 0  0 0.7 0 0 0  0 0 0.7 0 0  0 0 0 1 0"></feColorMatrix><feMerge><feMergeNode in="blur"></feMergeNode><feMergeNode in="offset"></feMergeNode><feMergeNode in="SourceGraphic"></feMergeNode></feMerge></filter></defs><g filter="url(#editing-rainbow)"><g transform="matrix(1.3,0,0,1.5,-218.9,204.8)"><path d="M 38.3 -69.9 L 38.3 -69.9 L 38.3 -69.9 Q 35.5 -63 26.4 -63 L 26.4 -63 L 26.4 -63 Q 21.7 -63 18.8 -66.2 L 18.8 -66.2 L 18.8 -66.2 Q 16.3 -69 16.3 -71.9 L 16.3 -71.9 L 16.3 -71.9 Q 16.3 -79.3 19.7 -93.9 L 19.7 -93.9 L 23.1 -111.7 L 41.8 -113.6 L 36.1 -84.5 L 36.1 -84.5 Q 34.6 -77.7 34.6 -75.3 L 34.6 -75.3 L 34.6 -75.3 Q 34.6 -70 38.3 -69.9 Z M 24.7 -124.5 L 24.7 -124.5 L 24.7 -124.5 Q 24.7 -128.1 27.7 -130 L 27.7 -130 L 27.7 -130 Q 30.7 -132 35 -132 L 35 -132 L 35 -132 Q 39.4 -132 42 -130 L 42 -130 L 42 -130 Q 44.6 -128.1 44.6 -124.5 L 44.6 -124.5 L 44.6 -124.5 Q 44.6 -120.9 41.7 -119.1 L 41.7 -119.1 L 41.7 -119.1 Q 38.8 -117.2 34.5 -117.2 L 34.5 -117.2 L 34.5 -117.2 Q 30.2 -117.2 27.4 -119.1 L 27.4 -119.1 L 27.4 -119.1 Q 24.7 -120.9 24.7 -124.5 Z M 112.4 -63 L 112.4 -63 L 112.4 -63 Q 101.3 -63 101.3 -71.6 L 101.3 -71.6 L 101.3 -71.6 Q 101.3 -75.4 102.9 -82.7 L 102.9 -82.7 L 102.9 -82.7 Q 104.5 -90 105 -93 L 105 -93 L 105 -93 Q 106.3 -99.7 106.3 -101.8 L 106.3 -101.8 L 106.3 -101.8 Q 106.3 -106.5 102.8 -106.5 L 102.8 -106.5 L 102.8 -106.5 Q 100.5 -106.5 98.3 -103.3 L 98.3 -103.3 L 98.3 -103.3 Q 96.1 -100.1 95.1 -93.8 L 95.1 -93.8 L 89.4 -64.8 L 71.5 -63 L 76.4 -88 L 76.4 -88 Q 77.3 -92.1 78 -96.8 L 78 -96.8 L 78 -96.8 Q 78.7 -101.5 78.7 -102.2 L 78.7 -102.2 L 78.7 -102.2 Q 78.7 -106.5 75.6 -106.5 L 75.6 -106.5 L 75.6 -106.5 Q 73.5 -106.5 71.2 -103.4 L 71.2 -103.4 L 71.2 -103.4 Q 68.9 -100.2 67.6 -93.8 L 67.6 -93.8 L 62 -64.8 L 43.9 -63 L 53.5 -111.7 L 68.5 -113.6 L 67 -104.3 L 67 -104.3 Q 69.4 -109.2 73.8 -111.4 L 73.8 -111.4 L 73.8 -111.4 Q 78.2 -113.6 85.1 -113.6 L 85.1 -113.6 L 85.1 -113.6 Q 89 -113.6 91.6 -111.6 L 91.6 -111.6 L 91.6 -111.6 Q 94.2 -109.7 95 -106.6 L 95 -106.6 L 95 -106.6 Q 96.6 -109.8 100.6 -111.7 L 100.6 -111.7 L 100.6 -111.7 Q 104.6 -113.6 109.5 -113.6 L 109.5 -113.6 L 109.5 -113.6 Q 114.4 -113.6 116.9 -112.5 L 116.9 -112.5 L 116.9 -112.5 Q 119.3 -111.4 120.8 -109.7 L 120.8 -109.7 L 120.8 -109.7 Q 123.3 -106.5 123.3 -100.6 L 123.3 -100.6 L 123.3 -100.6 Q 123.3 -94.8 120.8 -82.7 L 120.8 -82.7 L 120.8 -82.7 Q 119.5 -76.9 119.5 -74.7 L 119.5 -74.7 L 119.5 -74.7 Q 119.5 -72.5 120.7 -71.2 L 120.7 -71.2 L 120.7 -71.2 Q 122 -70 123.8 -69.8 L 123.8 -69.8 L 123.8 -69.8 Q 122.9 -66.6 119.7 -64.8 L 119.7 -64.8 L 119.7 -64.8 Q 116.5 -63 112.4 -63 Z M 134.9 -67.6 L 134.9 -67.6 L 134.9 -67.6 Q 132.7 -70 131.8 -73.7 L 131.8 -73.7 L 131.8 -73.7 Q 130.8 -77.5 130.8 -83.7 L 130.8 -83.7 L 130.8 -83.7 Q 130.8 -89.8 132.9 -95.4 L 132.9 -95.4 L 132.9 -95.4 Q 135 -101.1 138.9 -105.1 L 138.9 -105.1 L 138.9 -105.1 Q 146.8 -113.6 159.9 -113.6 L 159.9 -113.6 L 159.9 -113.6 Q 164.6 -113.6 168 -112 L 168 -112 L 183.7 -113.6 L 176.9 -77.7 L 176.9 -77.7 Q 176.6 -76.6 176.6 -74.6 L 176.6 -74.6 L 176.6 -74.6 Q 176.6 -72.5 177.9 -71.2 L 177.9 -71.2 L 177.9 -71.2 Q 179.1 -70 180.9 -69.8 L 180.9 -69.8 L 180.9 -69.8 Q 180 -66.6 176.7 -64.8 L 176.7 -64.8 L 176.7 -64.8 Q 173.3 -63 169.5 -63 L 169.5 -63 L 169.5 -63 Q 165.8 -63 163.2 -64.4 L 163.2 -64.4 L 163.2 -64.4 Q 160.7 -65.8 160 -68.2 L 160 -68.2 L 160 -68.2 Q 158.5 -65.9 155.4 -64.4 L 155.4 -64.4 L 155.4 -64.4 Q 152.2 -63 148.1 -63 L 148.1 -63 L 148.1 -63 Q 143.9 -63 140.5 -64.1 L 140.5 -64.1 L 140.5 -64.1 Q 137.1 -65.2 134.9 -67.6 Z M 154.3 -104.9 L 154.3 -104.9 L 154.3 -104.9 Q 153.3 -103.3 152.3 -100.5 L 152.3 -100.5 L 152.3 -100.5 Q 151.4 -97.6 149.9 -90.2 L 149.9 -90.2 L 149.9 -90.2 Q 148.4 -82.7 148.4 -77.3 L 148.4 -77.3 L 148.4 -77.3 Q 148.4 -72 149.2 -70.4 L 149.2 -70.4 L 149.2 -70.4 Q 150 -68.9 151.5 -68.9 L 151.5 -68.9 L 151.5 -68.9 Q 154.5 -68.9 156.6 -71.7 L 156.6 -71.7 L 156.6 -71.7 Q 158.8 -74.5 159.6 -79.4 L 159.6 -79.4 L 164.5 -106.4 L 164.5 -106.4 Q 162.5 -108 160.3 -108 L 160.3 -108 L 160.3 -108 Q 158 -108 156.7 -107.3 L 156.7 -107.3 L 156.7 -107.3 Q 155.4 -106.6 154.3 -104.9 Z M 194.8 -103.3 L 194.8 -103.3 L 194.8 -103.3 Q 198 -107.7 202.7 -110.6 L 202.7 -110.6 L 202.7 -110.6 Q 207.4 -113.6 213.2 -113.6 L 213.2 -113.6 L 213.2 -113.6 Q 219 -113.6 221.8 -111.7 L 221.8 -111.7 L 239.8 -113.6 L 233.6 -78.2 L 233.6 -78.2 Q 230.4 -60.2 223.5 -53.1 L 223.5 -53.1 L 223.5 -53.1 Q 217 -46.4 204.3 -46.4 L 204.3 -46.4 L 204.3 -46.4 Q 194.7 -46.4 189.1 -49.4 L 189.1 -49.4 L 189.1 -49.4 Q 183.6 -52.5 183.6 -57.5 L 183.6 -57.5 L 183.6 -57.5 Q 183.6 -61.3 186.5 -63.5 L 186.5 -63.5 L 186.5 -63.5 Q 189.3 -65.6 193.7 -65.6 L 193.7 -65.6 L 193.7 -65.6 Q 197.6 -65.6 200.5 -63.9 L 200.5 -63.9 L 200.5 -63.9 Q 202.3 -63 203.1 -61.7 L 203.1 -61.7 L 203.1 -61.7 Q 201 -59.8 201 -56.8 L 201 -56.8 L 201 -56.8 Q 201 -52.8 204.7 -52.8 L 204.7 -52.8 L 204.7 -52.8 Q 210.8 -52.8 214.3 -67.4 L 214.3 -67.4 L 214.3 -67.4 Q 215.4 -71.3 216.2 -75.3 L 216.2 -75.3 L 216.2 -75.3 Q 212 -70.2 202.7 -70.2 L 202.7 -70.2 L 202.7 -70.2 Q 196.1 -70.2 192.4 -73.4 L 192.4 -73.4 L 192.4 -73.4 Q 188.6 -76.5 188.6 -83.8 L 188.6 -83.8 L 188.6 -83.8 Q 188.6 -88.4 190.1 -93.6 L 190.1 -93.6 L 190.1 -93.6 Q 191.7 -98.8 194.8 -103.3 Z M 206.8 -83.6 L 206.8 -83.6 L 206.8 -83.6 Q 206.8 -77.3 210 -77.3 L 210 -77.3 L 210 -77.3 Q 212.2 -77.3 214.3 -79.7 L 214.3 -79.7 L 214.3 -79.7 Q 216 -81.6 216.6 -84.5 L 216.6 -84.5 L 221.3 -108.1 L 221.3 -108.1 Q 220.9 -108.2 220.4 -108.4 L 220.4 -108.4 L 220.4 -108.4 Q 219.5 -108.8 218.3 -108.8 L 218.3 -108.8 L 218.3 -108.8 Q 212.7 -108.8 209.4 -99.6 L 209.4 -99.6 L 209.4 -99.6 Q 206.8 -92.4 206.8 -83.6 Z M 280.7 -80.4 L 280.7 -80.4 L 280.7 -80.4 Q 283 -78.8 283 -75.3 L 283 -75.3 L 283 -75.3 Q 283 -71.9 281.2 -69.7 L 281.2 -69.7 L 281.2 -69.7 Q 279.5 -67.5 276.6 -66 L 276.6 -66 L 276.6 -66 Q 270.7 -63 264.4 -63 L 264.4 -63 L 264.4 -63 Q 258 -63 254.3 -64.3 L 254.3 -64.3 L 254.3 -64.3 Q 250.6 -65.7 248.1 -68.3 L 248.1 -68.3 L 248.1 -68.3 Q 243.2 -73.2 243.2 -82.1 L 243.2 -82.1 L 243.2 -82.1 Q 243.2 -96 250.8 -104.5 L 250.8 -104.5 L 250.8 -104.5 Q 258.9 -113.6 272.9 -113.6 L 272.9 -113.6 L 272.9 -113.6 Q 281.7 -113.6 286 -109.9 L 286 -109.9 L 286 -109.9 Q 289.2 -107.1 289.2 -102.6 L 289.2 -102.6 L 289.2 -102.6 Q 289.2 -86.4 261.3 -86.4 L 261.3 -86.4 L 261.3 -86.4 Q 260.9 -84 260.9 -82 L 260.9 -82 L 260.9 -82 Q 260.9 -77.8 262.8 -76.2 L 262.8 -76.2 L 262.8 -76.2 Q 264.7 -74.6 268.2 -74.6 L 268.2 -74.6 L 268.2 -74.6 Q 271.7 -74.6 275.4 -76.2 L 275.4 -76.2 L 275.4 -76.2 Q 279.1 -77.8 280.7 -80.4 Z M 261.9 -90.4 L 261.9 -90.4 L 261.9 -90.4 Q 268.4 -90.4 272.2 -94.4 L 272.2 -94.4 L 272.2 -94.4 Q 276 -98.3 276 -104.5 L 276 -104.5 L 276 -104.5 Q 276 -106.6 275.2 -107.7 L 275.2 -107.7 L 275.2 -107.7 Q 274.4 -108.9 272.9 -108.9 L 272.9 -108.9 L 272.9 -108.9 Q 271.3 -108.9 270 -108.3 L 270 -108.3 L 270 -108.3 Q 268.6 -107.7 267.2 -105.7 L 267.2 -105.7 L 267.2 -105.7 Q 263.8 -101.1 261.9 -90.4 Z M 319.9 -97.1 L 319.9 -97.1 L 319.9 -97.1 Q 321.2 -100.5 321.2 -103.4 L 321.2 -103.4 L 321.2 -103.4 Q 321.2 -108.9 316.7 -108.9 L 316.7 -108.9 L 316.7 -108.9 Q 314.4 -108.9 312.6 -106.8 L 312.6 -106.8 L 312.6 -106.8 Q 310.7 -104.7 310.7 -102.2 L 310.7 -102.2 L 310.7 -102.2 Q 310.7 -100.3 312.1 -98.8 L 312.1 -98.8 L 312.1 -98.8 Q 314.3 -96.8 319.7 -93.5 L 319.7 -93.5 L 319.7 -93.5 Q 325.1 -90.2 327.2 -87.5 L 327.2 -87.5 L 327.2 -87.5 Q 329.3 -84.8 329.3 -81 L 329.3 -81 L 329.3 -81 Q 329.3 -77.3 327.5 -73.9 L 327.5 -73.9 L 327.5 -73.9 Q 325.7 -70.5 322.4 -68.1 L 322.4 -68.1 L 322.4 -68.1 Q 315.5 -63 304.5 -63 L 304.5 -63 L 304.5 -63 Q 298.5 -63 293.9 -66.1 L 293.9 -66.1 L 293.9 -66.1 Q 289.3 -69.1 289.3 -72.7 L 289.3 -72.7 L 289.3 -72.7 Q 289.3 -76.3 291.9 -78.4 L 291.9 -78.4 L 291.9 -78.4 Q 294.6 -80.5 298.4 -80.5 L 298.4 -80.5 L 298.4 -80.5 Q 302.3 -80.5 304.7 -79.1 L 304.7 -79.1 L 304.7 -79.1 Q 303.5 -76 303.5 -74 L 303.5 -74 L 303.5 -74 Q 303.5 -67.9 308.6 -67.9 L 308.6 -67.9 L 308.6 -67.9 Q 310.9 -67.9 312.3 -69.3 L 312.3 -69.3 L 312.3 -69.3 Q 313.8 -70.7 313.8 -73.1 L 313.8 -73.1 L 313.8 -73.1 Q 313.8 -77.8 305.9 -82.7 L 305.9 -82.7 L 305.9 -82.7 Q 299.4 -87 298 -88.6 L 298 -88.6 L 298 -88.6 Q 295.5 -91.6 295.5 -95.3 L 295.5 -95.3 L 295.5 -95.3 Q 295.5 -98.9 297.2 -102.4 L 297.2 -102.4 L 297.2 -102.4 Q 299 -105.9 302.2 -108.4 L 302.2 -108.4 L 302.2 -108.4 Q 308.9 -113.6 320.6 -113.6 L 320.6 -113.6 L 320.6 -113.6 Q 326.6 -113.6 330.1 -111.2 L 330.1 -111.2 L 330.1 -111.2 Q 333.7 -108.8 333.7 -104.7 L 333.7 -104.7 L 333.7 -104.7 Q 333.7 -100.7 331.2 -98.4 L 331.2 -98.4 L 331.2 -98.4 Q 328.8 -96.1 324.4 -96.1 L 324.4 -96.1 L 324.4 -96.1 Q 321.3 -96.1 319.9 -97.1 Z M 362.6 -103.3 L 362.6 -103.3 L 362.6 -103.3 Q 365.7 -107.7 370.4 -110.6 L 370.4 -110.6 L 370.4 -110.6 Q 375.2 -113.6 381 -113.6 L 381 -113.6 L 381 -113.6 Q 386.8 -113.6 389.5 -111.7 L 389.5 -111.7 L 407.5 -113.6 L 401.3 -78.2 L 401.3 -78.2 Q 398.1 -60.2 391.3 -53.1 L 391.3 -53.1 L 391.3 -53.1 Q 384.7 -46.4 372 -46.4 L 372 -46.4 L 372 -46.4 Q 362.4 -46.4 356.9 -49.4 L 356.9 -49.4 L 356.9 -49.4 Q 351.3 -52.5 351.3 -57.5 L 351.3 -57.5 L 351.3 -57.5 Q 351.3 -61.3 354.2 -63.5 L 354.2 -63.5 L 354.2 -63.5 Q 357 -65.6 361.5 -65.6 L 361.5 -65.6 L 361.5 -65.6 Q 365.3 -65.6 368.3 -63.9 L 368.3 -63.9 L 368.3 -63.9 Q 370 -63 370.8 -61.7 L 370.8 -61.7 L 370.8 -61.7 Q 368.7 -59.8 368.7 -56.8 L 368.7 -56.8 L 368.7 -56.8 Q 368.7 -52.8 372.4 -52.8 L 372.4 -52.8 L 372.4 -52.8 Q 378.6 -52.8 382.1 -67.4 L 382.1 -67.4 L 382.1 -67.4 Q 383.1 -71.3 383.9 -75.3 L 383.9 -75.3 L 383.9 -75.3 Q 379.8 -70.2 370.4 -70.2 L 370.4 -70.2 L 370.4 -70.2 Q 363.8 -70.2 360.1 -73.4 L 360.1 -73.4 L 360.1 -73.4 Q 356.3 -76.5 356.3 -83.8 L 356.3 -83.8 L 356.3 -83.8 Q 356.3 -88.4 357.9 -93.6 L 357.9 -93.6 L 357.9 -93.6 Q 359.4 -98.8 362.6 -103.3 Z M 374.5 -83.6 L 374.5 -83.6 L 374.5 -83.6 Q 374.5 -77.3 377.7 -77.3 L 377.7 -77.3 L 377.7 -77.3 Q 379.9 -77.3 382.1 -79.7 L 382.1 -79.7 L 382.1 -79.7 Q 383.7 -81.6 384.4 -84.5 L 384.4 -84.5 L 389.1 -108.1 L 389.1 -108.1 Q 388.6 -108.2 388.1 -108.4 L 388.1 -108.4 L 388.1 -108.4 Q 387.2 -108.8 386 -108.8 L 386 -108.8 L 386 -108.8 Q 380.4 -108.8 377.1 -99.6 L 377.1 -99.6 L 377.1 -99.6 Q 374.5 -92.4 374.5 -83.6 Z M 415.1 -67.6 L 415.1 -67.6 L 415.1 -67.6 Q 413 -70 412 -73.7 L 412 -73.7 L 412 -73.7 Q 411 -77.5 411 -83.7 L 411 -83.7 L 411 -83.7 Q 411 -89.8 413.2 -95.4 L 413.2 -95.4 L 413.2 -95.4 Q 415.3 -101.1 419.1 -105.1 L 419.1 -105.1 L 419.1 -105.1 Q 427 -113.6 440.1 -113.6 L 440.1 -113.6 L 440.1 -113.6 Q 444.8 -113.6 448.2 -112 L 448.2 -112 L 463.9 -113.6 L 457.1 -77.7 L 457.1 -77.7 Q 456.9 -76.6 456.9 -74.6 L 456.9 -74.6 L 456.9 -74.6 Q 456.9 -72.5 458.1 -71.2 L 458.1 -71.2 L 458.1 -71.2 Q 459.3 -70 461.2 -69.8 L 461.2 -69.8 L 461.2 -69.8 Q 460.3 -66.6 456.9 -64.8 L 456.9 -64.8 L 456.9 -64.8 Q 453.5 -63 449.8 -63 L 449.8 -63 L 449.8 -63 Q 446 -63 443.5 -64.4 L 443.5 -64.4 L 443.5 -64.4 Q 440.9 -65.8 440.2 -68.2 L 440.2 -68.2 L 440.2 -68.2 Q 438.7 -65.9 435.6 -64.4 L 435.6 -64.4 L 435.6 -64.4 Q 432.5 -63 428.3 -63 L 428.3 -63 L 428.3 -63 Q 424.1 -63 420.7 -64.1 L 420.7 -64.1 L 420.7 -64.1 Q 417.3 -65.2 415.1 -67.6 Z M 434.5 -104.9 L 434.5 -104.9 L 434.5 -104.9 Q 433.5 -103.3 432.6 -100.5 L 432.6 -100.5 L 432.6 -100.5 Q 431.6 -97.6 430.1 -90.2 L 430.1 -90.2 L 430.1 -90.2 Q 428.6 -82.7 428.6 -77.3 L 428.6 -77.3 L 428.6 -77.3 Q 428.6 -72 429.4 -70.4 L 429.4 -70.4 L 429.4 -70.4 Q 430.3 -68.9 431.7 -68.9 L 431.7 -68.9 L 431.7 -68.9 Q 434.7 -68.9 436.8 -71.7 L 436.8 -71.7 L 436.8 -71.7 Q 439 -74.5 439.8 -79.4 L 439.8 -79.4 L 444.7 -106.4 L 444.7 -106.4 Q 442.8 -108 440.5 -108 L 440.5 -108 L 440.5 -108 Q 438.3 -108 436.9 -107.3 L 436.9 -107.3 L 436.9 -107.3 Q 435.6 -106.6 434.5 -104.9 Z M 490.9 -69.9 L 490.9 -69.9 L 490.9 -69.9 Q 488 -63 478.9 -63 L 478.9 -63 L 478.9 -63 Q 474.3 -63 471.4 -66.2 L 471.4 -66.2 L 471.4 -66.2 Q 469 -68.9 469 -71.9 L 469 -71.9 L 469 -71.9 Q 469 -78.8 472.2 -93.9 L 472.2 -93.9 L 478.9 -129.2 L 497.6 -131 L 488.7 -84.5 L 488.7 -84.5 Q 487.1 -77.7 487.1 -75.3 L 487.1 -75.3 L 487.1 -75.3 Q 487.1 -70 490.9 -69.9 Z M 520.7 -69.9 L 520.7 -69.9 L 520.7 -69.9 Q 517.9 -63 508.7 -63 L 508.7 -63 L 508.7 -63 Q 504.1 -63 501.2 -66.2 L 501.2 -66.2 L 501.2 -66.2 Q 498.8 -68.9 498.8 -71.9 L 498.8 -71.9 L 498.8 -71.9 Q 498.8 -78.8 502 -93.9 L 502 -93.9 L 508.7 -129.2 L 527.4 -131 L 518.5 -84.5 L 518.5 -84.5 Q 516.9 -77.7 516.9 -75.3 L 516.9 -75.3 L 516.9 -75.3 Q 516.9 -70 520.7 -69.9 Z M 565.8 -80.4 L 565.8 -80.4 L 565.8 -80.4 Q 568.1 -78.8 568.1 -75.3 L 568.1 -75.3 L 568.1 -75.3 Q 568.1 -71.9 566.3 -69.7 L 566.3 -69.7 L 566.3 -69.7 Q 564.6 -67.5 561.7 -66 L 561.7 -66 L 561.7 -66 Q 555.8 -63 549.5 -63 L 549.5 -63 L 549.5 -63 Q 543.2 -63 539.4 -64.3 L 539.4 -64.3 L 539.4 -64.3 Q 535.7 -65.7 533.2 -68.3 L 533.2 -68.3 L 533.2 -68.3 Q 528.3 -73.2 528.3 -82.1 L 528.3 -82.1 L 528.3 -82.1 Q 528.3 -96 535.9 -104.5 L 535.9 -104.5 L 535.9 -104.5 Q 544 -113.6 558.1 -113.6 L 558.1 -113.6 L 558.1 -113.6 Q 566.8 -113.6 571.1 -109.9 L 571.1 -109.9 L 571.1 -109.9 Q 574.3 -107.1 574.3 -102.6 L 574.3 -102.6 L 574.3 -102.6 Q 574.3 -86.4 546.4 -86.4 L 546.4 -86.4 L 546.4 -86.4 Q 546 -84 546 -82 L 546 -82 L 546 -82 Q 546 -77.8 547.9 -76.2 L 547.9 -76.2 L 547.9 -76.2 Q 549.8 -74.6 553.3 -74.6 L 553.3 -74.6 L 553.3 -74.6 Q 556.8 -74.6 560.5 -76.2 L 560.5 -76.2 L 560.5 -76.2 Q 564.2 -77.8 565.8 -80.4 Z M 547 -90.4 L 547 -90.4 L 547 -90.4 Q 553.5 -90.4 557.3 -94.4 L 557.3 -94.4 L 557.3 -94.4 Q 561.1 -98.3 561.1 -104.5 L 561.1 -104.5 L 561.1 -104.5 Q 561.1 -106.6 560.3 -107.7 L 560.3 -107.7 L 560.3 -107.7 Q 559.5 -108.9 558 -108.9 L 558 -108.9 L 558 -108.9 Q 556.4 -108.9 555.1 -108.3 L 555.1 -108.3 L 555.1 -108.3 Q 553.7 -107.7 552.4 -105.7 L 552.4 -105.7 L 552.4 -105.7 Q 548.9 -101.1 547 -90.4 Z M 606.3 -90.7 L 606.3 -90.7 L 606.3 -90.7 Q 609.6 -96.5 609.6 -102.5 L 609.6 -102.5 L 609.6 -102.5 Q 609.6 -106.5 606.7 -106.5 L 606.7 -106.5 L 606.7 -106.5 Q 604.5 -106.5 602.2 -102.7 L 602.2 -102.7 L 602.2 -102.7 Q 599.8 -98.9 599.1 -94.1 L 599.1 -94.1 L 594.3 -64.8 L 575.3 -63 L 584.6 -111.7 L 599.8 -113.6 L 598.2 -104.3 L 598.2 -104.3 Q 602.7 -113.6 612.8 -113.6 L 612.8 -113.6 L 612.8 -113.6 Q 618.1 -113.6 621 -110.8 L 621 -110.8 L 621 -110.8 Q 623.9 -108 623.9 -102.4 L 623.9 -102.4 L 623.9 -102.4 Q 623.9 -96.7 620.2 -93.1 L 620.2 -93.1 L 620.2 -93.1 Q 616.5 -89.6 610.1 -89.6 L 610.1 -89.6 L 610.1 -89.6 Q 607.4 -89.6 606.3 -90.7 Z M 654.7 -75.2 L 654.7 -75.2 L 654.7 -75.2 Q 649.9 -70.2 641.1 -70.2 L 641.1 -70.2 L 641.1 -70.2 Q 630.2 -70.2 627.9 -78.2 L 627.9 -78.2 L 627.9 -78.2 Q 627.1 -80.6 627.1 -83.3 L 627.1 -83.3 L 627.1 -83.3 Q 627.1 -86 627.7 -88.7 L 627.7 -88.7 L 632 -111.7 L 650.7 -113.6 L 645.6 -86.8 L 645.6 -86.8 Q 645.5 -85.6 645.2 -84.3 L 645.2 -84.3 L 645.2 -84.3 Q 644.9 -83 644.9 -81.7 L 644.9 -81.7 L 644.9 -81.7 Q 644.9 -80.4 645.4 -79.5 L 645.4 -79.5 L 645.4 -79.5 Q 645.8 -78.6 646.5 -78.1 L 646.5 -78.1 L 646.5 -78.1 Q 647.6 -77.3 649.6 -77.3 L 649.6 -77.3 L 649.6 -77.3 Q 651.5 -77.3 653.2 -79.7 L 653.2 -79.7 L 653.2 -79.7 Q 654.9 -82.1 655.8 -86.2 L 655.8 -86.2 L 660.8 -111.7 L 678.9 -113.6 L 672 -77.4 L 672 -77.4 Q 668.6 -59.7 661.6 -52.8 L 661.6 -52.8 L 661.6 -52.8 Q 658.1 -49.2 653.4 -47.7 L 653.4 -47.7 L 653.4 -47.7 Q 648.8 -46.3 642.8 -46.3 L 642.8 -46.3 L 642.8 -46.3 Q 633.1 -46.3 627.6 -49.3 L 627.6 -49.3 L 627.6 -49.3 Q 622.1 -52.4 622.1 -57.4 L 622.1 -57.4 L 622.1 -57.4 Q 622.1 -61.2 624.9 -63.4 L 624.9 -63.4 L 624.9 -63.4 Q 627.8 -65.5 632.2 -65.5 L 632.2 -65.5 L 632.2 -65.5 Q 636.1 -65.5 639 -63.9 L 639 -63.9 L 639 -63.9 Q 640.8 -62.9 641.6 -61.6 L 641.6 -61.6 L 641.6 -61.6 Q 639.5 -59.7 639.5 -56.7 L 639.5 -56.7 L 639.5 -56.7 Q 639.5 -52.7 643.2 -52.7 L 643.2 -52.7 L 643.2 -52.7 Q 649.2 -52.7 652.7 -66.6 L 652.7 -66.6 L 652.7 -66.6 Q 653.7 -70.8 654.7 -75.2 Z" fill="url(#editing-rainbow-gradient)"></path></g></g><style>text {
  font-size: 64px;
  font-family: Arial Black;
  dominant-baseline: central;
  text-anchor: middle;
}</style></svg>